<svg xmlns="http://www.w3.org/2000/svg" viewBox="0 0 594.8 594.6" fill="#212029"><path d="M297.4 5.1C136 5.1 5.1 135.9 5.1 297.4c0 161.4 130.9 292.2 292.3 292.2s292.3-130.9 292.3-292.3S458.8 5.1 297.4 5.1zm78 426.8c-.2-.4-.5-.9-.7-1.3-7.6-13-18.5-24.2-32.4-32.3a88.41 88.41 0 0 0-42.6-11.9c32-.8 59.8-18.4 74.8-44.3h.3c.2.3.4.7.6 1 .1-.1.1-.2.2-.3 15.4 26.3 44 43.9 76.7 43.9-.1.2-.2.3-.3.5 0 0 0 .1-.1.1h.9l.3.6.3-.6h.3c0-.1-.1-.1-.1-.2a.76.76 0 0 0 .2-.4h-.5c-.2-.3-.4-.7-.6-1-.1.3-.3.5-.4.8-16.2-27.9-45.1-43.8-75.2-44.5 14.4-.4 28.8-4.2 42.2-11.9 13.8-8 24.6-19 32.1-31.8-14.7.2-29.6 4-43.3 11.9-13.8 7.9-24.6 19-32.1 31.8h-.9c-.1-.2-.2-.3-.3-.5 0 .1-.1.2-.1.3-15.2-26.4-43.7-44.3-76.4-44.5h-.8c-.1-.2-.3-.5-.4-.7-.1.2-.2.5-.4.7h-.8c-32.4.5-60.5 18.3-75.7 44.5-.1-.1-.1-.2-.2-.4-15.5-26.2-44-43.7-76.6-43.7h-.8s0-.1.1-.1h-.3s0-.1-.1-.1c-7.6-13.2-18.6-24.6-32.7-32.7-13.3-7.7-28.3-11.7-43.6-11.8v.1c16.3 28.3 45.8 44.2 76.2 44.5 0 0 0 .1-.1.1h.3c0 .1.1.1.1.2 7.5 13 18.5 24.2 32.4 32.2 13.5 7.8 28.1 11.6 42.7 11.9-29.8.8-58.5 16.5-74.6 44.1 32.8 0 61.3-17.7 76.7-44.1h.4c-7.5 13-11.7 28.1-11.7 44.2 0 16.4 4.4 31.7 12.1 44.8-.1.2-.2.4-.4.7h-.3c-15.4-26.5-44.1-44.4-77-44.4h-.4s0-.1-.1-.1c.1-.2.3-.5.4-.7a.76.76 0 0 0 .2-.4h-.5c16.2-28.3 15.1-61.8.1-88.2-15.3 26.3-16.6 59.8-.8 88.2.1.2.2.4.4.6-.1.2-.2.4-.4.6h.6c-15.1 26.9-14.8 58.4-1.8 84.1-1.8-2.9-3.8-5.6-6-8.3-6.7-8.2-14.9-15.2-24.2-20.6-12.4-7.2-26.4-11.2-40.6-11.8 14.1-.7 27.7-4.8 39.7-11.6 13.2-7.5 24.4-18.3 32.3-31.8-15.6.2-30.6 4.5-43.6 12.1-11.6 6.8-21.7 16.2-29.3 27.8 6.1-12.2 9.3-25.7 9.3-39.4 0-14.4-3.5-28.6-10.2-41.3-.2-.5-.5-.9-.7-1.4-.2-.4-.5-.8-.7-1.2l-.5-.8s0-.1-.1-.1c.1-.1.1-.3.2-.4h.2c0-.1-.1-.1-.1-.2.1-.2.2-.4.4-.6h-.2c7.6-13.4 11.7-28.5 11.7-44 0-14.9-3.7-29.6-10.9-42.7-.4-.7-.9-1.4-1.3-2.1h.1c-.1-.1-.1-.2-.2-.3 30.1-.1 58.2-15.3 74.5-40.4-14.2 27.7-12.6 59.7 2.1 85.2 15.3-26.5 16.5-60.3.2-88.8a.76.76 0 0 0 .2-.4c0-.1.1-.1.1-.2.2-.3.3-.5.4-.8 31.1-.2 59.9-16.7 75.8-43.3-29.1.1-57.5 14.6-74.3 40.5 13.1-25.5 13.2-55.9-.1-81.5l-1.8-3.2c-.1.2-.2.3-.3.5l-4.5 7.7c-10.7 24.8-10.1 54.1 4.3 79.3h-.7c.2.3.3.5.5.8-31.5.2-59 16.7-74.6 41.5.8-1.5 1.6-3.1 2.3-4.7 5.4-11.6 8.2-24.3 8.2-37.2 0-14.9-3.7-29.6-10.9-42.7-.1-.2-.2-.4-.4-.6h.1c7.9 13.1 19 23.7 31.9 31.1s27.6 11.5 43 11.7a88.26 88.26 0 0 0-31.6-31.2 88.33 88.33 0 0 0-37.4-11.8c13.1-1.1 25.9-5 37.3-11.6 12-7 22.2-16.7 29.8-28.3 1-1.5 2-3.1 2.9-4.7h.8c0-.1-.1-.1-.1-.2.7.1 1.5.1 2.2.1 14.9-.4 29.5-4.4 42.4-11.9 11.5-6.7 21.4-15.9 28.9-27-12.4 26.7-10.4 57 3.4 81.3.2-.3.4-.6.5-.9 7.1-13.1 10.9-27.8 10.9-42.7 0-15.1-3.9-30-11.3-43.2.1-.2.3-.5.4-.7h.1c15.8 26.8 44.4 43.3 75.4 43.6-15.8-26.6-43.3-42-72.1-43.5 2.8-.1 5.6-.3 8.4-.7 11.7-1.5 23-5.2 33.3-11.2 11.3-6.6 21-15.5 28.4-26.2-5.5 11.8-8.3 24.6-8.3 37.4 0 15 3.7 30 11.3 43.5 7.6-13.6 11.3-28.6 11.3-43.6 0-14.6-3.7-29.2-10.9-42.5.1-.1.1-.2.1-.3.1.3.3.6.4.8 7.8 12.8 18.6 23.3 31.5 30.8 10.2 5.9 21.5 9.6 33.1 11.1 3.2.4 6.5.6 9.8.7-29.5.8-58 16.4-74.1 43.6 31-.4 59.5-16.9 75.3-43.6h.8c-7.6 13.4-11.7 28.5-11.7 43.9 0 16.2 4.3 31.3 11.8 44.4 0-.1.1-.1.1-.2 15.1-26.2 15.4-56.8 3.6-82.2 7.6 11.2 17.5 20.5 29.2 27.3 12 6.9 25.6 11 39.6 11.7-30.3 1.9-56.4 18.9-71 43.6 14.7-.2 29.6-4 43.3-11.9 13.1-7.6 24.1-18.5 31.8-31.5h1.3c.2.3.3.5.5.8 0-.1.1-.2.1-.2.3.6.7 1.2 1 1.8.8 1.3 1.7 2.7 2.6 4 7.5 10.9 17.4 20.1 28.9 26.8 12.9 7.4 27.5 11.5 42.5 11.8v.1h.2c-.1.2-.3.4-.4.7-7.2 13.1-10.9 27.8-10.9 42.7 0 10.4 1.8 20.6 5.4 30.3 1.8 5 4.1 9.9 6.9 14.6.1.2.3.4.4.6h-.4v-.3c-.1.1-.1.2-.2.3-15.1.2-29.9 4.3-43 11.8-13.8 8-24.7 19.1-32.3 32 29.7-.2 55.8-14.9 71.8-37.4-5.7 11.9-8.6 24.9-8.6 38.1 0 13.7 3.2 27.1 9.2 39.3-16.8-24.7-44.3-38.5-72.6-38.8.3.4.5.9.8 1.3 7.8 12.7 18.6 23.3 31.5 30.8 13.1 7.5 27.9 11.6 43 11.8.1.2.2.3.3.5 0 .1-.1.2-.2.3h.3v.1-.1h.5l.3.6v.6l-1 1.7v-2.8c-.4.7-.9 1.4-1.3 2.1-2.3 4.1-4.2 8.4-5.7 12.8-3.4 9.6-5.2 19.7-5.2 29.9 0 12 2.5 23.9 7.2 34.9-7.2-9.5-16.1-17.4-26.2-23.3-13.2-7.7-28.4-12-44.2-12.1 8 13.5 19.3 24.5 32.5 32 11.5 6.6 24.4 10.6 37.9 11.5-13.6.9-26.9 4.8-38.7 11.6-10.2 5.9-19.1 13.8-26.3 23.2-1.9 2.4-3.6 5-5.2 7.6-.3.6-.7 1.3-1 1.9-.1-.1-.1-.2-.2-.3-.2.3-.3.6-.5.9-7.8-13.1-18.8-24.1-32-31.7-14-8.1-29.2-11.9-44.3-11.9.1-.1.1-.2.2-.3-.5-.1-.7-.1-.9-.1zm-155-89.8c15.1 26 43.1 43.7 75.2 44.3-29.1.7-57.1 15.6-73.5 41.9 6.5-12.4 10.2-26.5 10.2-41.5.1-16.3-4.3-31.5-11.9-44.7zm76.1-43.8c.2.3.4.7.6 1a4.67 4.67 0 0 0 .5-1c.1-.1.1-.2.2-.3 16.2 27.7 45 43.4 74.9 44.1-14.4.4-28.8 4.2-42.2 11.9-13.9 8.1-24.9 19.3-32.4 32.4h-1c14.7-26.2 15.7-59.1 0-87.1-15.7 28-14.7 60.9 0 87.1h-.3c-7.5-13-18.5-24.3-32.5-32.4-13.5-7.8-28.1-11.6-42.7-11.9 29.8-.8 58.5-16.5 74.7-44.1.1.1.1.2.2.3zM65.6 430.9v.2s-.1-.1 0-.2c-.1 0-.1 0 0 0zm77.5 44.9c-.2-.2-.3-.4-.4-.6 15.3-27.2 15.3-60.4-.2-87.6 16.1 27.7 44.9 43.5 74.8 44.2-14.7.5-29.2 4.5-41.9 11.9-13.4 7.8-24.5 18.8-32.3 32.1zM530.2 344l.5-.9h-.7v-.7h.6v-2.3c6.8-12.5 10.6-26.9 10.6-42.2 0-15.5-4-30.1-10.9-42.8v-2.2h.5l-.4-.7c7.3-12.9 11.5-27.9 11.5-43.9 0-11.8-2.3-23.1-6.5-33.4 19 36.7 29.7 78.4 29.7 122.6s-10.7 85.9-29.7 122.6c9.3-24.1 8.3-51.9-5.2-76.1zm-8.4-192.5c-6.6-8-14.6-14.8-23.7-20a47.53 47.53 0 0 0-3.1-1.7c-12.5-6.8-26.9-10.6-42.2-10.6h-.4l-.2-.1c-.1-.2-.3-.4-.4-.7-7.5-12.9-18.4-24-32.3-32-13.8-8-28.9-11.8-43.8-11.9l-.6-.3c-7.6-13.3-18.7-24.9-32.9-33.1-9.9-5.7-20.5-9.3-31.2-11 88.3 4.4 165.3 51.7 210.8 121.4zM284.8 30c-26 3.8-50 19.1-64.2 43.6v.1l-1.4.7H218c-14.5.3-29.2 4.1-42.7 11.9-13.7 7.9-24.5 18.9-32.1 31.6-.1.2-.2.3-.3.5l-.2.1s0 .1.1.1c-.2.3-.4.6-.5 1l-.1.1h-1.9c-14.2.4-28.5 4.3-41.7 11.9-13.4 7.7-24.1 18.5-31.6 30.8l-1.1.7c.1.2.2.4.4.6v.1c-.1-.2-.3-.4-.4-.7C110.2 86.8 191.2 34.4 284.8 30zm-219 133.2v.9l-.7.4h.7c-15 26.3-16.2 59.6-.3 87.8l-.2.4h.3v.1c0 .1-.1.2-.1.3h-.3c0 .1.1.2.1.3-7.3 12.9-11.5 27.9-11.5 43.8s4.1 30.8 11.4 43.6v1.1h.1v2.1c-7 12.7-11 27.3-11 42.8 0 15.6 4 30.2 11 42.9v1.1c-22.6-39.3-35.6-84.9-35.6-133.5.1-48.8 13.2-94.7 36.1-134.1zm.4 268.9c0-.1.1-.1.1-.2l.5.3c15.2 25.7 43 43 74.8 43.6l.4.6.3-.6.6.3-.3.6c7.8 13.4 18.9 24.5 32.3 32.2 13.9 8 29.6 12 45.6 11.8 0 .1.1.1.1.2h.3l.2.1s0-.1-.1-.1h.1c.3.6.6 1.2 1 1.8 7.7 12.5 18.3 23 31 30.3 11.4 6.5 24.1 10.4 37.2 11.3a69.08 69.08 0 0 1 6.5-.3h.4s0-.1.1-.1c-.1-.2-.2-.4-.4-.6-.2-.3-.4-.7-.6-1-7.4-12.3-17.9-22.9-31.2-30.5-12.8-7.4-26.8-11.2-40.6-11.7 28.7-1.5 56.1-16.9 71.9-43.4-31 .4-59.4 16.9-75.2 43.5h.3c-.1.2-.2.4-.3.5 0 0 0 .1-.1.1-.1-.1-.1-.2-.2-.3.1-.1.1-.2.2-.3h-.4c-.1-.2-.2-.3-.3-.5 0 0 0 .1-.1.1-7.8-13.3-18.9-24.4-32.2-32.1-12.7-7.4-27-11.3-41.6-11.9a88.55 88.55 0 0 0 72.3-41.9c-14.7 27.8-13.2 60.1 1.5 85.8 7.4-13.2 11.3-28.1 11.4-43.2 0-16.1-4.3-31.3-11.8-44.3.1-.1.1-.2.2-.3h.7c15.4 25.8 43.4 43.1 75.5 43.5-15.8-26.4-43.9-42.8-74.4-43.5 14.3-.4 28.6-4.3 41.9-11.9 14.3-8.3 25.4-19.9 33-33.3.2.3.3.6.5.9 0-.1.1-.2.1-.2C305 400.5 316 411.9 330 420c13.8 8 28.8 11.8 43.7 11.9-.1.1-.1.2-.2.3h1.8c.1.1.1.2.2.3 15.2 25.9 41.4 41.2 69.1 43.7-13.2 1-26 4.9-37.4 11.5-12.9 7.5-23.7 18-31.5 30.8-.2.3-.4.7-.6 1 0-.1-.1-.2-.1-.2-.1.2-.3.5-.4.7 0 .1-.1.1-.1.2-.1.2-.3.5-.4.7.1-.2.3-.5.4-.7l-1.2.7c-15.4 0-30.6 4.1-44 11.8-12.9 7.5-23.7 18-31.5 30.8l-.3.6s0-.1-.1-.1c-.1.2-.2.3-.3.5h.1c-.1.2-.2.3-.3.5-98.3-.1-184.3-53.5-230.7-132.9zM298 564.9c30-.7 58.9-16.2 75.9-43.6a.76.76 0 0 0-.2.4l2.2-1.2c0 .1.1.1.1.2l.9-.5c14.5-.3 29.2-4.1 42.7-11.9 13.3-7.7 23.9-18.3 31.4-30.6l1.6-.9c-.1-.1-.1-.2-.2-.3h.1c15.1 0 30.4-3.8 44.5-11.9a91.71 91.71 0 0 0 24.5-20.8C473.8 516.6 391.6 564.7 298 564.9z"/><path d="M297.4 474.7c15.6-28 14.6-60.9 0-87.1-14.6 26.1-15.7 59.1 0 87.1zM374 163c.1.2.2.3.3.5-.1.2-.2.4-.4.6h.7c.1.2.3.5.4.7.1-.2.3-.5.4-.7 15.4 25.7 43.5 43 75.6 43.3-16.5-27.6-45.6-43-75.6-43.3.2-.4.4-.8.7-1.1h-1.3c0-.1-.1-.1-.1-.2 0 .1-.1.1-.1.2h-.6z"/><path d="M373.9 164.1c-14.9.1-29.9 4-43.7 11.9-13.5 7.8-24.2 18.6-31.7 31.1 29.9-.3 58.9-15.7 75.4-43zm-153.8 0h1.3c-.2-.4-.4-.7-.7-1.1-.2-.3-.3-.6-.5-.9-.2.3-.3.6-.5.9h-.3c0 .1.1.2.1.2-.2.3-.3.6-.5.9z"/><path d="M296.2 119.4h.9l.3.6.3-.6h.6c-.1-.2-.2-.4-.3-.5.1-.2.3-.5.4-.7h-.8c-.1-.2-.3-.5-.4-.7-.1.2-.2.5-.4.7h-.5c.1.1.2.3.3.4-.1.2-.3.5-.4.8zM263.9 176c-13.4-7.8-28-11.6-42.5-11.9 7.5 12.5 18.2 23.3 31.8 31.1 13.4 7.7 28 11.5 42.4 11.9-7.5-12.5-18.2-23.3-31.7-31.1zm111.2-11.2c-7.2 12.8-11.3 27.6-11.3 43.4s4.1 30.6 11.3 43.4c7.2-12.8 11.3-27.6 11.3-43.3 0-15.8-4.1-30.6-11.3-43.5zm-155.3 87.8c-15.4-26.5-44.1-44.3-77-44.3 16.5 28.4 46.4 44.3 77 44.3zm155.5 90.6c-15 26.2-16.2 59.3-.6 87.4 7.5-13 11.7-28.1 11.7-44.3 0-15.6-4-30.3-11.1-43.1zm-154.4-89.4c15.3 25.7 43.1 43 75 43.5-16.3-27.4-45.2-43-75-43.5zm76.2-44.2c-14.6 26.2-15.6 59.1 0 87 15.6-27.9 14.6-60.8 0-87zm76.8 44.2c-30.1.3-59.3 15.9-75.7 43.5 32.2-.3 60.3-17.7 75.7-43.5zm-75.8-45.4c7.5 12.9 18.5 24.2 32.4 32.2 13.8 8 28.9 11.8 43.8 11.9-15.3-26.1-43.7-43.8-76.2-44.1z"/><path d="M220.5 253.8h.3c-.2-.3-.3-.6-.5-.8.1-.1.1-.3.2-.4 14.9-.1 29.9-4 43.7-11.9 13.8-8 24.7-19.1 32.2-31.9.2.3.3.6.5.9.2-.4.4-.8.7-1.2h.4c-.1-.1-.1-.2-.2-.3.2-.3.4-.7.6-1h-1.1C312 181 313 148 297.3 120c-15.8 28-14.7 61 0 87.2h-1.8c.3.4.5.9.8 1.4a89.01 89.01 0 0 0-74.9 42.5c14.1-26.3 14.7-59-1.3-86.7 0 0 0-.1-.1-.1-7.5 13-11.7 28.1-11.7 44.2a89.15 89.15 0 0 0 11.7 44.2h-.3l.3.6c-.1.2-.2.4-.4.6-15.3-.1-30.7 3.8-44.9 11.9-13.8 8-24.7 19.1-32.2 32 15.3.1 30.8-3.7 44.9-11.9 13.3-7.7 23.8-18.2 31.3-30.4-6.7 12.5-10.5 26.8-10.5 42 0 16 4.2 31.1 11.6 44.1 7.5-13 11.8-28.2 11.8-44.3.2-15.8-3.9-30.7-11.1-43.5zm232-43.8l.6-1s0-.1.1-.1h.4c-.1-.1-.1-.2-.2-.3.2-.4.4-.7.7-1.1h-1.3c0-.1-.1-.2-.1-.3 0 .1-.1.2-.1.3h-1.3c.2.4.5.8.7 1.2-.1.1-.1.2-.2.3h.3c0 .2.2.6.4 1zm-33.3 55.7c-13.5-7.8-28.3-11.7-42.8-11.9 15.3 25.6 43 42.8 74.8 43.4-7.5-12.6-18.3-23.6-32-31.5zm33.2 33.6c.2-.3.3-.6.5-.8h.6c-.1-.2-.2-.3-.3-.5.1-.2.3-.5.4-.7h-.8l-.3-.6-.3.6h-.8c.1.2.3.5.4.7-.1.2-.2.3-.3.5h.6c0 .2.1.5.3.8z"/><path d="M375 253.8h1.4c-.2-.4-.5-.8-.7-1.2 30.2-.2 59.5-15.9 76-43.7-32.4.2-60.6 17.7-76 43.6-.2-.3-.3-.5-.5-.8-.2.3-.3.6-.5.9h-.3c.1.1.1.2.2.3l-.6.9h.9c-7.4 13-11.6 28-11.6 44 0 15.9 4.2 30.9 11.5 43.8 7.5-13 11.7-28.1 11.7-44.2-.1-15.8-4.2-30.7-11.5-43.6zm-77.1 224.1l.6-1.2v-.1h.1c.3-.4.5-.9.8-1.3h-1.5c-.1-.2-.3-.5-.4-.7-.1.2-.3.5-.4.7h-.7c.1.2.2.4.4.6-.1.3-.3.5-.4.7h.9c.1.5.3.9.6 1.3zM69.3 342.7h-3c15.3 25.8 43.3 43.1 75.4 43.5-15.4-25.6-42.5-42.1-72.4-43.5zm-2.8-.8c15.1-.2 30-4.2 43.2-11.8 13.9-8.1 24.9-19.3 32.4-32.3-32.2.5-60.3 18.1-75.6 44.1zm229.7-222.5c-32.1.4-60.1 17.8-75.4 43.6 30-.5 59-16 75.4-43.6zM175.1 151c14 8.1 29.3 11.9 44.4 11.9-16.6-27.7-45.8-43.1-76-43.2 7.7 13 18.6 23.8 31.6 31.3zM374 163c-15.3-25.9-43.4-43.3-75.7-43.6 16.5 27.7 45.6 43.3 75.7 43.6zm78.5 47c-15.1 27-15.1 59.7-.2 86.7 14.6-26.1 15.7-58.9.2-86.7z"/><path d="M452.4 299.3c-14.4 26.1-15.3 58.8.3 86.6 15.3-27.9 14.2-60.6-.3-86.6zm76.5 43.8c-31 .5-59.5 17.1-75.2 43.8 32-.6 59.9-18 75.2-43.8zM299.3 475.3c31.6-.7 59.1-17.8 74.4-43.1-29.5.7-58.1 16-74.4 43.1zm74.5 44.8c-15.8-26.6-44.3-43.1-75.2-43.5 16.4 27.6 45.3 43.1 75.2 43.5zm-75.9-42.2c-7.4 13.3-11.2 28.1-11.2 43-.1 14.1 3.2 28.2 9.9 41.1.3.6.7 1.3 1.1 1.9 7.5-13.4 11.2-28.2 11.2-43.1-.1-14.7-3.7-29.5-11-42.9zm153.8-90.4c-32.4.5-60.5 18.2-75.7 44.4 30.3-.5 59.5-16.4 75.7-44.4zm-.4 85.2c.4.8.8 1.5 1.3 2.3 14.7-26.1 15.9-59 .4-87-14.9 26.1-15.5 58-1.7 84.7zm-76.1 46.5c15.7-27.8 14.9-60.6.5-86.7-7.4 13-11.6 28-11.6 44 .1 14.9 3.9 29.7 11.1 42.7zm77.4-312c15.7-27.9 14.8-60.7.3-86.8l-1.6 2.8c-13.7 26.4-13.2 58 1.3 84zm.9 1.7c15.7 26.9 44.4 43.5 75.5 44-15.2-26-43.3-43.6-75.5-44zm.5-1.5c15.4-.4 30.1-4.7 43-12.2 11.8-7 22.1-16.7 29.8-28.6.4-.6.7-1.3 1.1-2-15 .4-29.3 4.5-41.9 11.7-12.9 7.4-24 18-32 31.1z"/></svg>