<svg xmlns="http://www.w3.org/2000/svg" viewBox="0 0 143.69 203.89"><defs><style>.cls-1{fill:#b79b30;}</style></defs><title>Asset 1</title><g id="Layer_2" data-name="Layer 2"><g id="Layer_1-2" data-name="Layer 1"><path class="cls-1" d="M73.51,156.35a1.88,1.88,0,0,1-1.65-1L57.29,128.73,30.64,114.15a1.88,1.88,0,0,1-1-1.64,1.86,1.86,0,0,1,1-1.64L57.29,96.29,71.86,69.64a1.88,1.88,0,0,1,3.29,0L89.72,96.29l26.65,14.58a1.86,1.86,0,0,1,1,1.64,1.88,1.88,0,0,1-1,1.64L89.72,128.73,75.15,155.38A1.87,1.87,0,0,1,73.51,156.35ZM35.44,112.51,59.57,125.7a1.84,1.84,0,0,1,.74.75l13.2,24.13L86.7,126.45a1.84,1.84,0,0,1,.74-.75l24.13-13.19L87.44,99.31a1.88,1.88,0,0,1-.74-.74L73.51,74.44,60.31,98.57a1.88,1.88,0,0,1-.74.74Z"/><path class="cls-1" d="M43.83,144.06a1.87,1.87,0,0,1-1.8-2.4l8.54-29.15L42,83.36a1.88,1.88,0,0,1,.47-1.85A1.9,1.9,0,0,1,44.36,81l29.15,8.54L102.65,81A1.88,1.88,0,0,1,105,83.36l-8.54,29.15L105,141.66a1.87,1.87,0,0,1-2.33,2.32l-29.14-8.53L44.36,144A2,2,0,0,1,43.83,144.06Zm2.76-58.47L54.32,112a1.88,1.88,0,0,1,0,1l-7.73,26.4L73,131.7a1.88,1.88,0,0,1,1,0l26.39,7.73L92.69,113a1.87,1.87,0,0,1,0-1l7.73-26.39L74,93.32a1.87,1.87,0,0,1-1,0Z"/><path class="cls-1" d="M137.53,185.58H6.16a3.75,3.75,0,0,1-3.75-3.75v-18.3a3.75,3.75,0,0,1,3.75-3.75H137.53a3.75,3.75,0,0,1,3.75,3.75v18.3A3.75,3.75,0,0,1,137.53,185.58ZM9.9,178.09H133.79V167.27H9.9Z"/><path class="cls-1" d="M126.58,167.27H17.11a3.75,3.75,0,0,1-3.75-3.74V64.08a3.75,3.75,0,0,1,3.75-3.75H126.58a3.75,3.75,0,0,1,3.75,3.75v99.45a3.75,3.75,0,0,1-3.75,3.74ZM20.85,159.78h102V67.83h-102Z"/><path class="cls-1" d="M140,67.83H3.74A3.75,3.75,0,0,1,0,64.08V49.52a3.75,3.75,0,0,1,3.74-3.75H140a3.75,3.75,0,0,1,3.74,3.75V64.08A3.75,3.75,0,0,1,140,67.83ZM7.49,60.33H136.2V53.26H7.49Z"/><path class="cls-1" d="M126.58,53.26H17.11a3.75,3.75,0,0,1-2.41-6.62L69.44.87a3.76,3.76,0,0,1,4.81,0L129,46.64a3.75,3.75,0,0,1-2.41,6.62ZM27.42,45.77h88.85L71.85,8.63Z"/><path class="cls-1" d="M105.9,203.89H37.8a3.75,3.75,0,0,1-2.48-.94l-20.7-18.31a3.74,3.74,0,0,1,2.49-6.55H126.59a3.74,3.74,0,0,1,2.48,6.55L108.38,203A3.79,3.79,0,0,1,105.9,203.89ZM39.22,196.4h65.26l12.22-10.82H27Z"/><path class="cls-1" d="M104.3,167.27H39.39a3.74,3.74,0,0,1-3.74-3.74V64.08a3.74,3.74,0,0,1,3.74-3.75H104.3a3.75,3.75,0,0,1,3.75,3.75v99.45a3.75,3.75,0,0,1-3.75,3.74Zm-61.16-7.49h57.42V67.83H43.14Z"/><path class="cls-1" d="M104.3,53.26H39.39a3.74,3.74,0,0,1-3-5.91L68.79,1.58a3.74,3.74,0,0,1,6.11,0l32.46,45.77a3.74,3.74,0,0,1-3.06,5.91ZM46.64,45.77H97.05L71.85,10.22Z"/><path class="cls-1" d="M92,203.89H51.66a3.75,3.75,0,0,1-3.11-1.66L36.28,183.92a3.75,3.75,0,0,1,3.11-5.83H104.3a3.74,3.74,0,0,1,3.11,5.83L95.15,202.23A3.78,3.78,0,0,1,92,203.89ZM53.66,196.4H90l7.24-10.82H46.41Z"/><path class="cls-1" d="M104.3,67.83a3.74,3.74,0,0,1-3.74-3.75V49.52a3.75,3.75,0,1,1,7.49,0V64.08A3.75,3.75,0,0,1,104.3,67.83Z"/><path class="cls-1" d="M39.39,67.83a3.74,3.74,0,0,1-3.74-3.75V49.52a3.75,3.75,0,1,1,7.49,0V64.08A3.75,3.75,0,0,1,39.39,67.83Z"/><path class="cls-1" d="M104.3,185.58a3.74,3.74,0,0,1-3.74-3.75V163.11a3.75,3.75,0,1,1,7.49,0v18.72A3.75,3.75,0,0,1,104.3,185.58Z"/><path class="cls-1" d="M39.39,185.58a3.74,3.74,0,0,1-3.74-3.75V163.11a3.75,3.75,0,1,1,7.49,0v18.72A3.75,3.75,0,0,1,39.39,185.58Z"/></g></g></svg>