<svg viewBox="0 0 994.03 994.97" xmlns="http://www.w3.org/2000/svg"><g fill="#b79b30"><path d="m677.21 31.35c-.69 2.07-1.1 3.5-1.63 4.89q-50.82 134-101.64 268c-4.11 10.83-8.13 21.69-12.18 32.54-.82 2.17-1.32 4.9-4.66 3.59s-1.68-3.84-.92-5.84q56.82-150 113.71-300a14 14 0 0 1 1.87-4c.77-.95 2.31-2.08 3.23-1.88s1.6 1.86 2.22 2.7z"/><path d="m430.45 649.61c-.69 1.68-1.15 2.91-1.7 4.1l-106.75 231.65q-13.11 28.44-26.2 56.89c-.62 1.36-1 2.92-2 4s-2.46 1.57-3.73 2.32c-.46-1.52-1.67-3.3-1.26-4.51a133.36 133.36 0 0 1 5.19-12.34q63.19-137 126.4-274c1.25-2.71 2.08-5.64 3.61-8.17.63-1 2.57-1.59 4-1.75.75-.1 1.63 1.2 2.44 1.81z"/><path d="m600.21 363.73c-1.13-.7-2.83-1.2-2.91-1.9a6.82 6.82 0 0 1 .93-4.45c6-8.34 12.28-16.56 18.45-24.82l168.13-225.11a75.58 75.58 0 0 1 5.06-6.78c1.59-1.69 2.85-5.6 6-2.82.81.72-.1 4.56-1.28 6.2-8.88 12.25-18 24.3-27.1 36.43q-80.34 107.52-160.69 215.08c-1.39 1.86-2.61 3.85-4 5.69a23.41 23.41 0 0 1 -2.59 2.48z"/><path d="m541.79 6.79c-1.62 18.36-3.28 36.73-4.84 55.1-1.14 13.41-2.1 26.83-3.21 40.24-1.2 14.55-2.5 29.09-3.72 43.64-1.11 13.23-2.16 26.46-3.27 39.69q-1.86 22.35-3.76 44.69c-1.1 13.25-2.13 26.49-3.24 39.74-1.24 14.89-2.56 29.78-3.8 44.68-.33 4-.2 8-.83 11.92-.22 1.34-2.1 2.41-3.23 3.61-.84-1.54-2.53-3.14-2.41-4.6 2-25 4.28-49.94 6.35-74.91 1.49-18 2.65-36.1 4.15-54.14 1.83-22 3.95-44 5.8-66 1.5-17.88 2.7-35.79 4.19-53.67 1.49-18 3.18-36.06 4.75-54.1.46-5.29.56-10.63 1.26-15.89.31-2.34 1.69-4.53 2.58-6.79l4.32 6z"/><path d="m964.38 317a77 77 0 0 1 -6.86 3.7c-18.34 7.18-36.72 14.27-55.07 21.41l-242.93 94.62c-.46.19-1 .63-1.37.52-1.69-.5-3.33-1.15-5-1.75.94-1.23 1.63-3.1 2.87-3.6 14.44-5.8 29-11.4 43.47-17q126.78-49.37 253.58-98.7c1.84-.71 3.73-1.73 5.62-1.78 1.43-.08 2.87 1.21 5.69 2.58z"/><path d="m629.37 393.53c2-1.81 3.48-3.45 5.22-4.79q63.52-48.35 127.07-96.63 61.74-47 123.46-93.93c1.32-1 2.54-2.38 4-2.87s3.5-.22 5.26-.27c-.62 1.66-.75 3.94-1.94 4.89-8.19 6.53-16.61 12.77-25 19.12l-177.8 135.29q-25 19-50 38c-2.82 2.14-5.56 4.13-10.27 1.19z"/><path d="m491.62 995c-.91-1.75-2.61-3.51-2.6-5.26.11-17.47.58-34.94.8-52.41.16-13 0-26 .16-39q.43-45.2 1-90.39.6-47.43 1.33-94.86.31-22.22.58-44.43c0-.17-.06-.37 0-.5q1.52-2.61 3.05-5.2c.94 1.69 2.6 3.34 2.68 5.07.3 6.32.13 12.66 0 19-.3 21-.69 41.93-1 62.89q-.74 54.18-1.37 108.37-.48 37.69-1 75.38c-.23 18.31-.42 36.62-.7 54.92a40 40 0 0 1 -.88 5.71z"/><path d="m391.11 624.34c-1.19 1.61-2 2.85-2.94 3.95q-20.17 23.49-40.38 46.93-45.59 53-91.18 105.94-38.28 44.46-76.61 88.84c-.76.88-1.45 2.12-2.43 2.46a21 21 0 0 1 -4.81.54c.23-1.44-.05-3.29.75-4.25 9.49-11.32 19.17-22.55 28.83-33.75q42.19-49 84.43-97.94l90.59-105.12c2.5-2.9 4.92-5.88 7.59-8.62a4.72 4.72 0 0 1 3.47-1.14c.92.08 1.71 1.31 2.69 2.16z"/><path d="m475.06 664.8c-2 13.2-3.89 25.46-5.77 37.72q-3.77 24.51-7.54 49-4.23 27.48-8.48 54.94-4.27 27.77-8.52 55.54-4.77 30.91-9.59 61.83-4.23 27.5-8.42 55a29.64 29.64 0 0 1 -1.06 5.84c-.54 1.45-1.83 2.62-2.79 3.92-.93-1.71-2.79-3.52-2.63-5.13.68-6.74 2-13.42 3-20.13q4.34-28 8.64-56 4.68-30.45 9.36-60.91 4.78-30.93 9.61-61.86 4.88-31.42 9.72-62.86c2.82-18.5 5.53-37 8.36-55.52a16.18 16.18 0 0 1 1.79-5c.19-.35 2.28-.29 2.68.22a14 14 0 0 1 1.64 3.4z"/><path d="m360 589.49a51.38 51.38 0 0 1 -4.28 3.53q-36 23.7-72.1 47.32l-193.92 127.05c-.69.45-1.35 1.23-2.09 1.31-2 .23-4.14.16-6.22.21 1-1.61 1.66-3.78 3.11-4.74q35.73-23.68 71.65-47.1 97.77-64.07 195.57-128.13c1.78-1.16 4.14-1.54 6.29-1.94.42-.07 1.13 1.42 1.99 2.49z"/><path d="m21.88 641.62c3.37-1.19 6.7-2.5 10.1-3.56q150.23-46.65 300.43-93.29c3.18-1 5.8-1.64 7.51 3-1.81.72-3.51 1.52-5.28 2.07q-138.34 43-276.72 86c-10.11 3.16-20.2 6.3-30.39 9.16-1.67.47-3.76-.53-5.66-.85z"/><path d="m631.07 976.33c-5 1.06-5.41-2.26-6.12-4.85-5.41-19.62-10.71-39.26-16.07-58.89q-34.15-125.14-68.23-250.29c-.43-1.58 0-4.83.7-5 3.38-.94 3.86 1.87 4.54 4.37q20.36 74.65 40.79 149.29 21.54 78.9 43 157.8c.65 2.33.89 4.78 1.39 7.57z"/><path d="m586.28 638.11a35.9 35.9 0 0 1 3.38 4.17q19.07 31.26 38 62.59 63.42 104.51 126.85 209a7.75 7.75 0 0 1 1.22 2.15c.4 2 .58 4 .86 6-1.76-1.17-4.16-1.93-5.17-3.56-11.62-18.78-23-37.7-34.49-56.57l-113.67-187.31c-6.29-10.36-12.63-20.69-18.91-31.06-1.24-2.04-2.6-4.28 1.93-5.41z"/><path d="m356.53 409.07c-1.27 1.78-1.74 3-2.2 3a8.2 8.2 0 0 1 -4-.82c-10.6-6.2-21.14-12.53-31.7-18.81l-242.63-144.39a19.58 19.58 0 0 1 -4.18-2.66c-.9-.93-1.19-2.46-1.75-3.73a28.51 28.51 0 0 1 4.41-.3c.73 0 1.41.82 2.12 1.24l268.33 159.68c2.57 1.53 5.2 3 7.79 4.45 1.28.75 2.54 1.56 3.81 2.34z"/><path d="m943.85 719c-2.33 4.15-4.73 2.29-7.05 1.12l-84.47-42.56q-99.95-50.35-199.86-100.72c-2.31-1.16-4.5-2.58-6.82-3.93 2.1-4 4.4-2.79 6.89-1.53q52.22 26.29 104.46 52.55 61.29 30.9 122.55 61.87c19.54 9.86 39.11 19.64 58.64 29.52a63.4 63.4 0 0 1 5.66 3.68z"/><path d="m465.29 333.88c-1.13-2-2.87-3.81-3.29-5.92q-12.51-61.75-24.72-123.56t-24.42-123.58c-.8-4-2-8-2.49-12.13-.26-2.16.66-4.45 1.05-6.69 1.39 1.78 3.56 3.37 4 5.37 2 8.51 3.57 17.15 5.27 25.75q8.77 44.25 17.54 88.51 9.77 49.17 19.53 98.37c3.09 15.54 6.27 31.07 9.34 46.62a55.53 55.53 0 0 1 .54 6.46z"/><path d="m492.6 341c-1 2.17-2.22 6.27-2.9 6.18-4-.54-2.61-4.21-2.77-6.78q-1.89-31.1-3.61-62.21c-.86-15.44-1.56-30.89-2.44-46.32-1.13-19.74-2.4-39.46-3.56-59.19-.85-14.61-1.6-29.22-2.43-43.82-1.18-20.58-2.42-41.14-3.6-61.72-.22-4-.35-8-.3-12 0-.85 1-1.7 1.52-2.55a10.09 10.09 0 0 1 2.49 1.91 5.86 5.86 0 0 1 .68 2.85c1.05 20.09 2 40.18 3.12 60.26 1.1 19.74 2.43 39.47 3.59 59.21.86 14.6 1.56 29.22 2.39 43.82 1.17 20.57 2.43 41.13 3.6 61.7.84 14.77 1.58 29.55 2.4 44.32.26 4.64.63 9.28 1 13.91z"/><path d="m349.61 77c4.83-1.15 5.19 2.09 6 4.37 7.1 20.13 14.08 40.31 21.13 60.46q36.38 104 72.77 208.06a4.74 4.74 0 0 1 .51 1.9 32.21 32.21 0 0 1 -.88 3.74c-1.09-.74-2.77-1.25-3.16-2.27-2.73-7.1-5.24-14.28-7.75-21.47q-43.53-124.66-87-249.33c-.63-1.65-1.04-3.39-1.62-5.46z"/><path d="m660.07 501.88c23.7 1.28 48.75 2.68 73.8 4 15.11.77 30.22 1.32 45.33 2 26.56 1.29 53.11 2.7 79.67 4 19.26.9 38.54 1.63 57.81 2.47 7.13.31 14.27.61 21.38 1.17 1.27.1 2.44 1.49 3.66 2.28-1.26.63-2.55 1.86-3.78 1.8-21.9-1-43.79-2.13-65.69-3.21q-31.12-1.53-62.26-3l-62.73-3-54.26-2.65c-14.1-.67-28.21-1.27-42.3-2.09-1.27-.07-2.46-1.54-3.69-2.35a14.68 14.68 0 0 1 3.72-1.36c2.65-.21 5.33-.06 9.34-.06z"/><path d="m240 134c4.06-2.42 5.17.84 6.52 2.72 10.43 14.61 20.74 29.31 31.1 44q66.33 93.83 132.65 187.67a48.09 48.09 0 0 1 2.93 5.61l-1.82 1.35a42.62 42.62 0 0 1 -4.59-4.73q-28.44-40-56.76-80.15-53.37-75.51-106.7-151c-1.2-1.78-2.19-3.6-3.33-5.47z"/><path d="m56.27 443.19c.91-.29 1.87-.92 2.74-.81q144.72 17.14 289.42 34.46c.8.09 1.49 1 3.29 2.38-2.42.61-3.85 1.41-5.17 1.25-29.15-3.48-58.27-7.15-87.42-10.62-23.88-2.84-47.79-5.37-71.68-8.19-21.07-2.49-42.11-5.26-63.18-7.77-18.27-2.17-36.57-4.08-54.85-6.23-4.51-.53-9-1.54-13.46-2.33z"/><path d="m795.4 471.84c-2.39 0-3.7.34-4.69-.08a19.69 19.69 0 0 1 -3.66-2.62c1.09-.75 2.12-2 3.27-2.17 9.89-1.14 19.79-2.1 29.7-3.05q25-2.4 50.06-4.73c12.23-1.13 24.46-2.17 36.69-3.28q25-2.3 50.07-4.62c10.9-1 21.8-2.09 32.72-2.82 1.43-.09 3 1.73 4.47 2.67-1.35.87-2.64 2.39-4.07 2.53q-41.61 4.14-83.25 8c-20 1.83-40 3.35-60 5.17-17.51 1.57-35.01 3.4-51.31 5z"/><path d="m881.71 571.65c-18.88-3.57-36.75-6.94-54.61-10.34q-43.35-8.25-86.68-16.52c-25-4.74-50-9.35-75-14.21-1.45-.28-2.55-2.33-3.82-3.55 1.68-.6 3.5-2 5-1.67q67 12.66 133.9 25.63 39.45 7.56 78.9 15a5.21 5.21 0 0 1 2.34.79 22.74 22.74 0 0 1 2.53 3z"/><path d="m779.34 841.42c-1.46-1.06-3.23-1.87-4.34-3.22q-23-27.91-45.86-56-43.87-53.72-87.75-107.44-22.9-28-46-55.87a5.1 5.1 0 0 1 -.95-1.16c-.73-2-1.38-4-2.06-5.93 1.73 1.07 3.9 1.79 5.13 3.28q42.26 51.51 84.32 103.16 47.52 58.15 95.07 116.28c1.33 1.63 2.51 3.4 3.76 5.11z"/><path d="m919.46 640.33a24.85 24.85 0 0 1 -5.07-.61q-51.24-17.37-102.45-34.87-61.29-20.85-122.62-41.64c-7.68-2.6-15.52-4.71-23.29-7.05-.63-.19-1.42-.19-1.87-.58-1.69-1.48-3.28-3.08-4.9-4.64 2.23-.11 4.69-.91 6.65-.24q124.71 42.46 249.34 85.19a41.24 41.24 0 0 1 4.64 2.25c-.14.73-.28 1.46-.43 2.19z"/><path d="m415.75 620.81c4.43 2.07 2.41 4.3 1.1 6.34q-15.36 23.91-30.79 47.79-41.68 64.77-83.35 129.55a31 31 0 0 1 -3.34 4.94c-.71.72-2.24.63-3.4.91a13.6 13.6 0 0 1 -.35-3.5 7.69 7.69 0 0 1 1.44-2.59q57.24-88.86 114.5-177.71c1.24-1.93 2.7-3.71 4.19-5.73z"/><path d="m813 181.39c-1.83 2.18-2.69 3.37-3.71 4.4q-34.29 34.54-68.67 69.08-39.54 39.9-79.08 79.81c-1.19 1.2-3.44 1.33-5.2 1.95.64-1.81.77-4.12 2-5.36 25.86-26.17 51.87-52.18 77.79-78.3q34.29-34.56 68.46-69.24c1.16-1.17 2.29-2.61 3.73-3.23.94-.41 2.42.41 4.68.89z"/><path d="m174.62 506.14q-48.12.83-96.25 1.65c-13.63.25-27.26.62-40.89 1-10 .27-19.92.65-29.88 1-1.33 0-2.8.33-4-.13-1.32-.57-2.4-1.79-3.6-2.66 1.23-.86 2.42-2.38 3.69-2.45 7.31-.39 14.63-.47 22-.6 20.62-.35 41.24-.61 61.86-1q44.9-.92 89.77-2a11.08 11.08 0 0 1 4 .17 3.31 3.31 0 0 1 1.83 2.43 3 3 0 0 1 -2 2.13 46.48 46.48 0 0 1 -6.47.11z"/><path d="m421.16 349.31c-1.34-1.57-3-2.95-4-4.74q-21.74-41.94-43.29-84c-11.55-22.38-23.21-44.7-34.64-67.13-1-2-.8-4.7-1.15-7.08 2 1.61 4.71 2.82 5.78 4.9q28.52 54.93 56.66 110.06c6.89 13.41 13.85 26.78 20.63 40.24 1 2 1.23 4.44 1.81 6.68z"/><path d="m861.18 829.06c-.58 1.18-1 2.47-1.26 2.46a6.43 6.43 0 0 1 -3.56-.91c-3.44-2.88-6.7-6-10-9l-114.71-106.13c-2.44-2.26-5-4.38-7.25-6.84-.79-.89-.68-2.59-1-3.92 1.45.18 3.36-.17 4.27.63 6.88 6 13.58 12.28 20.3 18.48q54.1 50 108.17 99.95c1.8 1.65 3.38 3.52 5.04 5.28z"/><path d="m721.09 374c-.76-.61-2-1.11-2.06-1.75a3.46 3.46 0 0 1 1.06-2.83c2.62-1.73 5.45-3.14 8.2-4.67q75.08-42.08 150.2-84.08c2.3-1.28 4.58-4.46 7.88-1.61-1.77 1.8-3.24 4.15-5.36 5.34q-77.58 43.73-155.28 87.21c-1.43.79-2.92 1.5-4.64 2.39z"/><path d="m256.27 533.64 3.24 1.8c-1.2.78-2.32 2.06-3.61 2.27-35.09 5.78-70.19 11.42-105.29 17.13q-43.1 7-86.18 14.08c-.65.1-1.41.55-1.92.35a29.87 29.87 0 0 1 -3.53-2c1-.76 1.81-2 2.87-2.19 6.67-1.19 13.4-2.11 20.09-3.2 23.66-3.87 47.3-7.83 71-11.66 21.71-3.52 43.46-6.89 65.17-10.38 10.94-1.77 21.85-3.68 32.77-5.51 1.44-.21 2.93-.33 5.39-.69z"/><path d="m334.49 456c-1.57-.38-2.53-.59-3.48-.84q-73.08-19.24-146.12-38.62c-2.34-.62-6.25-3.49-6-4.21 1.3-4 4.82-1.73 7.14-1.12q72.84 19.13 145.6 38.55a10 10 0 0 1 3.26 1.05 17.47 17.47 0 0 1 2.68 3z"/><path d="m569.74 365.87c-.11-1.52-.8-3.3-.24-4.5 1.88-4.06 4.19-7.92 6.34-11.84q35.42-64.51 70.91-129c1-1.81 3.25-2.94 4.92-4.39-.24 2.21.16 4.78-.83 6.59q-37.85 69.42-76 138.68a55.69 55.69 0 0 1 -3.18 4.67z"/><path d="m673 905.37c-1.2-1.65-2.76-3.14-3.55-5q-21.77-50.37-43.39-100.86c-9-20.86-18-41.7-26.86-62.59-.85-2-1-4.31-1.43-6.47l1.8-.67a28.37 28.37 0 0 1 3.09 4.56q35.63 82.62 71.11 165.3a28.93 28.93 0 0 1 1.14 4.58z"/><path d="m814.72 423.08c-1.84.86-3.59 2.09-5.53 2.55q-57.42 13.51-114.89 26.86c-15.43 3.61-30.85 7.28-46.32 10.73-1.62.36-3.52-.53-5.29-.85 0-.83 0-1.66 0-2.49q84.26-19.71 168.54-39.33c1-.23 2.25.79 3.38 1.24.02.43.06.86.11 1.29z"/><path d="m551.9 936.58q-1.5-11.3-3-22.59-2.86-21.91-5.67-43.84c-1.81-14.29-3.53-28.6-5.34-42.89-1.84-14.46-3.77-28.91-5.61-43.37a30.61 30.61 0 0 1 -.32-6c.07-.93 1-1.8 1.48-2.69.84.66 2.22 1.19 2.41 2a89.15 89.15 0 0 1 1.67 9.78c2.45 19.72 4.76 39.46 7.27 59.17 2.83 22.18 5.86 44.33 8.75 66.5.9 6.91 1.75 13.82 2.34 20.76.11 1.24-1.2 2.59-1.85 3.89z"/><path d="m182.37 363.25c1.93.31 4 .25 5.77 1q46.77 19.51 93.46 39.17 37.59 15.74 75.25 31.31a6.27 6.27 0 0 1 2.23 1 13 13 0 0 1 1.56 2.79c-1.12.29-2.43 1.1-3.33.77-4.05-1.46-8-3.24-12-4.91q-79.28-33.24-158.53-66.51a48.47 48.47 0 0 1 -4.95-2.79c.17-.61.37-1.22.54-1.83z"/><path d="m706 640.22c1.76.53 3.79.66 5.24 1.65 17.82 12.22 35.54 24.58 53.3 36.88l95.92 66.4a7.4 7.4 0 0 1 2.31 1.86 9.2 9.2 0 0 1 .64 3c-.9 0-1.94.28-2.66-.08a42.13 42.13 0 0 1 -5.08-3.15q-72.9-50.58-145.79-101.2c-1.58-1.1-3.06-2.34-4.59-3.52z"/><path d="m320.11 503.09q-49.1.84-98.18 1.7c-4 .07-7.93.67-11.86.44-1.36-.08-2.6-2-3.9-3 1.45-.77 2.87-2.18 4.33-2.22 19.44-.48 38.88-.67 58.32-1.12 17.43-.41 34.85-1.06 52.28-1.55a28.07 28.07 0 0 1 7.4.39c1.24.3 2.11 2.08 3.15 3.2-1.19.61-2.33 1.63-3.57 1.76a78.59 78.59 0 0 1 -8 .08z"/><path d="m16.18 368.41c2.46 0 5.06-.53 7.36.08q60.62 16 121.15 32.34c1.93.52 3.64 1.9 5.45 2.88l-.61 2.09c-2.39-.2-4.87-.06-7.17-.66q-59-15.39-117.9-31c-3-.79-5.86-2.06-8.79-3.11z"/><path d="m163.5 792.19c-1-.67-2.23-1.12-2.22-1.53a4.59 4.59 0 0 1 1-3c4.3-3.94 8.74-7.71 13.12-11.55q43.74-38.36 87.48-76.7a37.46 37.46 0 0 1 5.44-4.35c1-.59 2.58-.2 3.9-.25-.34 1.28-.27 3-1.09 3.78-5.15 4.73-10.52 9.22-15.77 13.83q-43.74 38.34-87.48 76.69a46.42 46.42 0 0 1 -4.38 3.08z"/><path d="m598 65.6c-2.35 10.39-4.53 20.06-6.72 29.72q-11.26 49.8-22.62 99.59c-.48 2.07-2.51 5.64-3.19 5.5-4.26-.91-1.83-4.33-1.36-6.42q13.54-60.46 27.4-120.87a73.33 73.33 0 0 1 1.65-7.74c.37-1.08 1.89-1.76 2.9-2.62.72 1.07 1.46 2.14 1.94 2.84z"/><path d="m328.06 168.39c-1.5-1.85-3.39-3.5-4.47-5.57q-24.88-47.92-49.59-95.94c-1.22-2.36-2.92-4.52-3.75-7-.65-1.94-.3-4.22-.39-6.34 1.64 1.24 3.93 2.14 4.83 3.79 5.25 9.6 10.19 19.38 15.21 29.11q19.16 37.14 38.24 74.32c1 1.94 1.33 4.2 2 6.31z"/><path d="m251.7 297.63c1.93 1 4.09 1.72 5.76 3.05 19.25 15.32 38.4 30.77 57.62 46.13 21.29 17 42.65 33.95 63.88 51 1.5 1.21 2.23 3.37 3.32 5.09l-1.72 1.5-130.27-104.53z"/><path d="m385.26 373.15c-.6 1-.87 2.12-1.39 2.26a3.51 3.51 0 0 1 -2.75-.38 57.08 57.08 0 0 1 -5.41-5.14q-33.16-35.28-66.29-70.6c-2.38-2.54-4.95-4.93-7.14-7.63-.76-1-.63-2.63-.9-4a21 21 0 0 1 4.39.72 8.09 8.09 0 0 1 2.63 2.25q36.53 39 73 78c1.34 1.37 2.53 2.94 3.86 4.52z"/><path d="m296.44 675.92c-.6-2.11-1.59-3.7-1.15-4.48a18.13 18.13 0 0 1 4-4.34q39.22-34.32 78.5-68.57a19.27 19.27 0 0 1 3.83-3.16c1.26-.61 2.88-.47 4.35-.67-.43 1.54-.38 3.59-1.38 4.52-4.87 4.52-10.05 8.69-15.05 13.07q-34.14 29.93-68.25 59.87c-1.19 1.06-2.53 1.98-4.85 3.76z"/><path d="m230.89 212.94c-1.95-1.11-4.3-1.83-5.78-3.39q-28.68-30.21-57.11-60.64c-3.53-3.76-7.18-7.41-10.54-11.3-.79-.91-.64-2.62-.93-4 1.47.18 3.49-.21 4.33.62 4.84 4.77 9.4 9.83 14.06 14.78q27 28.72 54 57.47a42.92 42.92 0 0 1 3.45 4.82z"/><path d="m666.52 483.39-2.56-3c1.2-.82 2.34-2.25 3.6-2.37 26.11-2.46 52.24-4.77 78.36-7.13 2.63-.24 5.28-1 7.87-.81 1.43.11 2.75 1.69 4.12 2.61-1.28 1-2.48 2.74-3.85 2.9-8.09.93-16.21 1.45-24.32 2.19-16.86 1.54-33.72 3.14-50.58 4.69-3.8.31-7.61.53-12.64.92z"/><path d="m695.8 680.29c-2-1.07-4.44-1.75-6.07-3.26q-33.57-30.93-67-62c-.73-.68-1.7-1.3-2-2.16a13.29 13.29 0 0 1 -.39-3.55c1.11 0 2.47-.47 3.27 0a29.71 29.71 0 0 1 4.6 3.82q32 29.34 63.9 58.74c2 1.89 3.58 4.34 5.35 6.53z"/><path d="m554.44 250.17c.16 1.67.75 3.44.4 5q-8.21 37.26-16.63 74.49c-1.34 6-2.59 12-4.15 17.87-.32 1.22-1.85 2.12-2.82 3.16-.51-1.46-1.7-3.07-1.42-4.35q9.07-41.4 18.46-82.73c1-4.53 2.22-9 3.33-13.52z"/><path d="m401 827.22c-2.72 9.08-5.26 17.45-7.74 25.83-6.24 21-12.37 42.1-18.77 63.08-.65 2.16-2.82 3.87-4.28 5.78-.14-2.38-.94-4.95-.3-7.11q12.81-43.42 26.07-86.72c.4-1.31 2.16-2.2 3.28-3.29z"/><path d="m713.27 108.45c-.62 1.44-1 2.7-1.68 3.85q-21.06 38.4-42.24 76.7c-.81 1.46-2.94 2.19-4.45 3.25.13-1.92-.36-4.18.47-5.73q20.63-38.29 41.63-76.43a13.63 13.63 0 0 1 2.36-3.17 2.39 2.39 0 0 1 2.13-.58c.75.4 1.21 1.39 1.78 2.11z"/><path d="m532.38 747.61-1.92 2.54c-.86-1.06-2.3-2-2.48-3.19-1.18-7.52-2.11-15.09-3.08-22.64-1.87-14.62-3.7-29.24-5.58-43.86-1.41-11-2.93-22-4.21-33-.13-1.06 1.14-2.29 1.76-3.44.93 1.2 2.49 2.31 2.68 3.62 1.24 8.52 2.14 17.09 3.21 25.64q2.7 21.43 5.46 42.87c1.31 10.16 2.69 20.33 4.16 31.46z"/><path d="m928.44 392.71 2.48 1.89c-1.27 1-2.4 2.61-3.83 3-11.06 2.74-22.17 5.23-33.26 7.8-19.61 4.56-39.2 9.15-58.83 13.6-1.27.28-2.81-.6-4.22-.94 1.15-1 2.15-2.69 3.47-3q45.48-11 91-21.74c.85-.24 1.67-.32 3.19-.61z"/><path d="m364.05 561.45a48.45 48.45 0 0 1 -4.37 2.61q-34.81 16.48-69.68 32.94a93.18 93.18 0 0 1 -9 4.17c-1.14.4-2.77-.61-4.17-1 .79-1.06 1.35-2.61 2.41-3.11q39.51-18.76 79.16-37.23c1.47-.69 3.54-.09 5.33-.09.09.55.21 1.13.32 1.71z"/><path d="m402.42 811.33c0-1.89-.45-3.91.06-5.64q11.16-37.56 22.63-75c.45-1.44 2.34-2.43 3.56-3.63.33 1.69 1.31 3.58.88 5.06q-10.8 37.13-22 74.15c-.58 1.94-1.87 3.66-2.83 5.49z"/><path d="m230.22 283.69-79.34-63.57 1.12-2.12c1.73.71 3.75 1.07 5.15 2.19 14.33 11.4 28.53 23 42.83 34.41 9 7.17 18.06 14.18 27 21.38a54 54 0 0 1 5.32 5.67z"/><path d="m194.91 641.48c-.66-.58-2.21-1.69-2.1-1.89a7.32 7.32 0 0 1 2.62-3.15c7.28-3.59 14.66-7 22-10.42l41.84-19.65c.76-.35 1.49-1 2.24-1a42.19 42.19 0 0 1 5 .51c-1.05 1.25-1.85 3-3.19 3.68-21.32 10.22-42.77 20.34-64.19 30.44a44.09 44.09 0 0 1 -4.22 1.48z"/><path d="m555.42 632.28c5.53 2.84 37.54 76.91 35.88 82.31-1.7-2.23-3.38-3.72-4.19-5.58q-15.08-34.8-29.88-69.7c-.78-1.83-1.03-3.9-1.81-7.03z"/><path d="m430.52 712.64c1.87-6.1 3.59-11.61 5.26-17.14 5.36-17.69 10.65-35.41 16.13-53.07.42-1.34 2.1-2.29 3.19-3.43.34 1.58 1.33 3.34.93 4.69q-10.03 34.23-20.41 68.31c-.42 1.36-1.85 2.4-2.81 3.59z"/><path d="m696.87 386.88a19.91 19.91 0 0 1 -2.89 2.43q-30.58 17.19-61.26 34.19c-1.13.63-2.92.06-4.4 0 .93-1.48 1.49-3.6 2.83-4.37 14.85-8.45 29.76-16.73 44.65-25.13 5.06-2.84 10-6 15.15-8.55 1.54-.76 3.77-.12 5.69-.12.08.54.15 1.05.23 1.55z"/><path d="m914.13 572.65c10 1.91 18.91 3.63 27.85 5.3 10.72 2 21.45 4 32.17 6a9.32 9.32 0 0 1 3.3 1 23.16 23.16 0 0 1 3.2 2.93c-1.51.61-3.13 1.93-4.51 1.72-6.69-1-13.31-2.5-20-3.79-13.8-2.67-27.61-5.24-41.37-8.08-1.56-.32-2.83-2.06-4.24-3.15z"/><path d="m160.88 657.79-12.52 6-45.17 21.71c-.6.29-1.21.83-1.79.8-1.83-.1-3.65-.42-5.48-.66 1.17-1.29 2.09-3.1 3.54-3.79 18.19-8.74 36.45-17.31 54.68-25.94 2.47-1.16 4.86-2.35 6.74 1.88z"/><path d="m246.66 226.75c2.34 1.64 3.72 2.3 4.69 3.33q16.72 17.85 33.34 35.78a8 8 0 0 1 1.84 2.34c.31.81.38 2.38 0 2.65a3.35 3.35 0 0 1 -3 .26 41.92 41.92 0 0 1 -5-4.8q-14.61-15.4-29.15-30.85a17.82 17.82 0 0 1 -3.38-4.26c-.47-.88.27-2.32.66-4.45z"/><path d="m289.78 824.53q-11.28 17.58-22.57 35.16c-2.15 3.35-4.23 6.77-6.62 9.94-.71.93-2.39 1.13-3.63 1.66 0-1.45-.7-3.28-.06-4.3q13.41-21.25 27.22-42.25c.79-1.19 3-1.45 4.53-2.15.35.65.75 1.3 1.13 1.94z"/><path d="m674.28 617.45c-5.3.78-52.43-32.09-54.69-37.44 2.74 1.12 4.78 1.56 6.37 2.66q22.35 15.33 44.53 30.89a27.93 27.93 0 0 1 3.79 3.89z"/><path d="m398.36 11.83c.57-.77 1.34-2.73 2.16-2.75a5.85 5.85 0 0 1 4 1.95 10.19 10.19 0 0 1 1.78 4.59c1.61 8.49 3.24 17 4.49 25.53.26 1.74-1 3.72-1.61 5.58-1.65-1.29-4.39-2.34-4.75-3.92-2.25-10.04-4.01-20.19-6.07-30.98z"/><path d="m604.66 391.34c-.82-.7-1.94-1.27-1.89-1.7a6.41 6.41 0 0 1 1.26-3.48c4.8-5.08 9.73-10.05 14.66-15 6-6 11.95-12.08 18.09-17.94 1.05-1 3-1.11 4.48-1.63-.34 1.56-.16 3.62-1.1 4.6-10.65 11-21.45 21.87-32.25 32.73a26.69 26.69 0 0 1 -3.25 2.42z"/><path d="m86.43 324.29c2.31-.38 3.55-1 4.39-.66q23 9.45 45.79 19.18c.87.37 1.26 1.89 1.87 2.88-1.16.11-2.5.66-3.46.27q-22.28-9.1-44.45-18.46c-1.13-.5-2-1.5-4.14-3.21z"/><path d="m347.61 518.4 3.17 2.24c-1.3 1-2.49 2.68-3.92 2.91q-18 2.93-36.17 5.3c-1.49.19-3.17-1-4.76-1.61 1.32-.8 2.56-2.06 4-2.32 12.13-2.21 24.31-4.23 37.68-6.52z"/></g></svg>