<svg enable-background="new 0 0 594.8 594.6" viewBox="0 0 594.8 594.6" xmlns="http://www.w3.org/2000/svg"><g fill="none" stroke="#363342" stroke-width="2" transform="translate(0 867.64)"><path d="m297.4-862.5c-161.4 0-292.3 130.8-292.3 292.3 0 161.4 130.9 292.2 292.3 292.2s292.3-130.9 292.3-292.3-130.9-292.2-292.3-292.2z"/><path d="m263.9-691.6c42.6 24.6 57.1 79 32.6 121.6-24.6 42.6-79 57.1-121.6 32.6-42.6-24.6-57.1-79-32.6-121.6 24.6-42.6 79.1-57.2 121.6-32.6z"/><path d="m419.2-601.9c-42.6-24.6-97-10-121.6 32.6s-10 97 32.6 121.6 97 10 121.6-32.6 10-97.1-32.6-121.6z"/><path d="m174.9-601.9c42.6-24.6 97-10 121.6 32.6s10 97-32.6 121.6-97 10-121.6-32.6c-24.5-42.6-9.9-97.1 32.6-121.6z"/><path d="m330.2-691.6c-42.6 24.6-57.1 79-32.6 121.6 24.6 42.6 79 57.1 121.6 32.6 42.6-24.6 57.1-79 32.6-121.6-24.6-42.6-79-57.2-121.6-32.6z"/><path d="m264.3-513.6c42.6 24.6 57.1 79 32.6 121.6-24.6 42.6-79 57.1-121.6 32.6-42.6-24.6-57.1-79-32.6-121.6 24.6-42.6 79-57.2 121.6-32.6z"/><path d="m386.4-481.3c0 49.2-39.8 89-89 89s-89-39.8-89-89 39.8-89 89-89 89 39.8 89 89z"/><path d="m374.8-347.7c24.6-42.6 10-97-32.6-121.6s-97-10-121.6 32.6-10 97 32.6 121.6c42.6 24.5 97 9.9 121.6-32.6z"/><path d="m330.5-513.6c-42.5 24.6-57.1 79-32.5 121.6s79 57.1 121.6 32.6c42.6-24.6 57.1-79 32.6-121.6-24.7-42.6-79.1-57.2-121.7-32.6z"/><path d="m419.5-781.2c-42.6-24.6-97-10-121.6 32.6s-10 97 32.6 121.6 97 10 121.6-32.6 10-97-32.6-121.6z"/><path d="m386.4-659.3c0-49.2-39.8-89-89-89s-89 39.8-89 89 39.8 89 89 89 89-39.9 89-89z"/><path d="m374.8-705c24.6-42.6 10-97-32.6-121.6s-97-10-121.6 32.6-10 97 32.6 121.6c42.6 24.5 97 9.9 121.6-32.6z"/><path d="m175.3-781.2c42.6-24.6 97-10 121.6 32.6s10 97-32.6 121.6-97 10-121.6-32.6-10-97 32.6-121.6z"/><path d="m231.8-570.4c0 49.2-39.8 89-89 89s-89-39.8-89-89 39.8-89 89-89 89 39.8 89 89z"/><path d="m143.4-391.8c49.2 0 89-39.8 89-89s-39.8-89-89-89-89 39.8-89 89 39.9 89 89 89z"/><path d="m452.8-570.4c49.2 0 89-39.8 89-89s-39.8-89-89-89-89 39.8-89 89c0 49.1 39.9 89 89 89z"/><path d="m66-614.4c24.6 42.6 79 57.1 121.6 32.6 42.6-24.6 57.1-79 32.6-121.6-24.6-42.6-79-57.1-121.6-32.6-42.6 24.6-57.2 79.1-32.6 121.6z"/><path d="m375.4-435.7c24.6 42.6 79 57.1 121.6 32.6 42.6-24.6 57.1-79 32.6-121.6-24.6-42.6-79-57.1-121.6-32.6-42.6 24.6-57.1 79-32.6 121.6z"/><path d="m297.4-837.9c-147.8 0-267.6 119.8-267.6 267.6s119.8 267.6 267.6 267.6 267.6-119.7 267.6-267.5-119.8-267.7-267.6-267.7z"/><path d="m297.4-481.2c49.2 0 89-39.8 89-89s-39.8-89-89-89-89 39.8-89 89 39.8 89 89 89z"/><path d="m541.2-569.8c0-49.2-39.8-89-89-89s-89 39.8-89 89 39.8 89 89 89c49.1 0 89-39.8 89-89z"/><path d="m374.2-346.8c-15.9-27.4-45.2-44.2-76.8-44.2-31.7 0-60.9 16.9-76.8 44.3"/><path d="m217.7-435.8c-14.9.4-29.5 4.4-42.4 11.9-13.6 7.9-24.9 19.3-32.7 33 7.8 13.4 18.9 24.5 32.3 32.2 13.9 8 29.6 12 45.6 11.8 7.8 13.5 18.9 24.6 32.4 32.4 13.4 7.7 28.6 11.8 44.1 11.9 15.8-27.5 15.7-61.2 0-88.7-16.4-28.3-46.8-45.3-79.3-44.5z"/><path d="m219.9-347c7.7-13.4 11.8-28.7 11.9-44.2 0-49.2-39.8-89-89-89-31.7 0-60.9 16.9-76.8 44.3"/><path d="m142-391.2c16.1-27.6 16.2-61.6.2-89.3-15.2-26.2-42.6-43-72.9-44.4-1.2 0-2.4 0-3.7 0 .1.2.2.3.3.5"/><path d="m65.4-436.7c31.7-.1 61-17 76.8-44.4 24.6-42.6 10-97-32.6-121.6-13.5-7.8-28.8-11.8-44.4-11.8 0 .1.1.2.1.3"/><path d="m65.2-525.7c15.6 0 30.9-4 44.5-11.8 42.6-24.6 57.2-79 32.6-121.6-15.2-26.2-42.6-43-72.9-44.4-1.1 0-2.1 0-3.2 0"/><path d="m65.6-524.5c8.1-13.7 12.4-29.3 12.4-45.2 0-14.9-3.7-29.6-10.9-42.7-.4-.7-.9-1.4-1.3-2.1"/><path d="m65.6-434.5c8.1-13.7 12.4-29.3 12.4-45.2 0-14.9-3.7-29.6-10.9-42.7-.4-.7-.9-1.4-1.3-2.1"/><path d="m65.6-614.5c8.1-13.7 12.4-29.3 12.4-45.2 0-14.9-3.7-29.6-10.9-42.7-.4-.7-.9-1.4-1.3-2.1"/><path d="m529.2-524.5c-8.1-13.7-12.4-29.3-12.4-45.2 0-14.9 3.7-29.6 10.9-42.7.4-.7.9-1.4 1.3-2.1"/><path d="m529.2-434.5c-8.1-13.7-12.4-29.3-12.4-45.2 0-14.9 3.7-29.6 10.9-42.7.4-.7.9-1.4 1.3-2.1"/><path d="m529.2-614.5c-8.1-13.7-12.4-29.3-12.4-45.2 0-14.9 3.7-29.6 10.9-42.7.4-.7.9-1.4 1.3-2.1"/><path d="m221.1-346.6c-7.8-13.9-19.2-25.4-32.9-33.4-12.9-7.5-27.5-11.5-42.4-11.9-.8 0-1.7 0-2.5.1"/><path d="m299-301.6c-7.8-13.9-19.2-25.4-32.9-33.4-12.9-7.5-27.5-11.5-42.4-11.9-.8 0-1.7 0-2.5.1"/><path d="m143.2-391.6c-7.8-13.9-19.2-25.4-32.9-33.4-12.9-7.5-27.5-11.5-42.4-11.9-.8 0-1.7 0-2.5.1"/><path d="m452.9-748.1c-15.9.2-31.6-3.9-45.3-11.8-12.9-7.5-23.7-18-31.5-30.8-.4-.7-.8-1.5-1.2-2.2"/><path d="m454-745.7c-.4-.7-.8-1.5-1.2-2.2 15.9-.2 31.6 3.9 45.3 11.8 13.6 7.9 24.9 19.3 32.7 33-15.9.2-31.6-3.9-45.3-11.8-12.9-7.5-23.7-18.1-31.5-30.8z"/><path d="m375-793.1c-15.9.2-31.6-3.9-45.3-11.8-12.9-7.5-23.7-18-31.5-30.8-.4-.7-.8-1.5-1.2-2.2"/><path d="m452.7-391.8c-15.9-.2-31.6 3.9-45.3 11.8-12.9 7.5-23.7 18-31.5 30.8-.4.7-.8 1.5-1.2 2.2"/><path d="m530.6-436.8c-15.9-.2-31.6 3.9-45.3 11.8-12.9 7.5-23.7 18-31.5 30.8-.4.7-.8 1.5-1.2 2.2"/><path d="m374.8-346.8c-15.9-.2-31.6 3.9-45.3 11.8-12.9 7.5-23.7 18-31.5 30.8-.4.7-.8 1.5-1.2 2.2"/><path d="m220.9-793.3c-7.8 13.9-19.2 25.4-32.9 33.4-12.9 7.5-27.5 11.5-42.4 11.9-.8 0-1.7 0-2.5-.1"/><path d="m298.8-838.3c-7.8 13.9-19.2 25.4-32.9 33.4-12.9 7.5-27.5 11.5-42.4 11.9-.8 0-1.7 0-2.5-.1"/><path d="m142.9-748.3c-7.8 13.9-19.2 25.4-32.9 33.4-12.9 7.5-27.5 11.5-42.4 11.9-.8 0-1.7 0-2.5-.1"/><path d="m220.6-793.7c15.9 27.4 45.2 44.2 76.8 44.2 31.7 0 60.9-16.9 76.8-44.3"/><path d="m65.9-704.5c15.9 27.4 45.2 44.3 76.8 44.3 32.5 0 62.5-17.8 78.1-46.3 7.1-13.1 10.9-27.8 10.9-42.7 0-15.7-4.2-31.2-12.2-44.8"/><path d="m142.8-749c7.8 13.4 18.9 24.6 32.3 32.4 42.6 24.6 97 10 121.6-32.6 15.8-27.5 15.8-61.2 0-88.7"/><path d="m297.8-837.9c-15.8 27.5-15.8 61.3 0 88.7 24.6 42.6 79 57.2 121.6 32.6 13.5-7.8 24.7-19.1 32.4-32.6-.1 0-.2 0-.3 0"/><path d="m374.9-793.6c-7.8 13.5-12 28.8-12 44.4 0 49.2 39.8 89 89 89 30.3 0 58.5-15.4 74.9-40.9.5-.9 1.1-1.8 1.6-2.8"/><path d="m529.9-703.1c-31.7.1-60.9 17-76.8 44.4-16.3 28.2-15.9 63 1.1 90.8 7.8 12.7 18.6 23.3 31.5 30.8 13.6 7.8 29.1 11.9 44.9 11.8"/><path d="m530-614.2c-15.5 0-30.7 4.1-44.2 11.8-42.6 24.6-57.2 79-32.6 121.6 15.9 27.4 45.1 44.3 76.8 44.4"/><path d="m530.7-524.6c-31.9-.1-61.5 16.8-77.4 44.4-15.2 26.2-15.9 58.4-2 85.3.6 1.1 1.2 2.1 1.8 3.2.1-.2.2-.3.3-.5"/><path d="m452.6-390.9c-7.8-13.5-19-24.8-32.5-32.6-42.6-24.6-97-10-121.6 32.6-15.1 26.2-15.9 58.4-2 85.3.5.9 1.1 1.9 1.6 2.8"/><path d="m376-347c-7.7-13.4-11.8-28.7-11.9-44.2 0-49.2 39.8-89 89-89 31.7 0 60.9 16.9 76.8 44.3"/><path d="m530.7-614.8c-31.9.1-61.5-16.8-77.4-44.4-15.2-26.2-15.9-58.4-2-85.3.6-1.1 1.2-2.1 1.8-3.2.1.2.2.3.3.5"/><path d="m65.3-614.8c31.9.1 61.5-16.8 77.4-44.4 15.1-26.2 15.9-58.4 2-85.3-.6-1.1-1.2-2.1-1.8-3.2-.1.2-.2.3-.3.5"/></g></svg>